REM DIRINDEX 1\2,1\4,1\5,1\6,1\7,1\3\8,1\3\9,1\3\10
REM DIRNAME folder01,folder02,folder03,folder04,folder05,folder06,folder07,folder08,folder09,folder10
TITLE ""
FILE "DB4500_5th_6C_38.mp3" MP3
  TRACK 01 AUDIO
    TITLE "8:cjc113_4812"
    INDEX 01 00:00:00
  TRACK 02 AUDIO
    TITLE "0:"
    INDEX 01 00:01:26
  TRACK 03 AUDIO
    TITLE "9:cjc113_4813"
    INDEX 01 00:01:32
  TRACK 04 AUDIO
    TITLE "0:"
    INDEX 01 00:02:55
  TRACK 05 AUDIO
    TITLE "10:cjc113_4814"
    INDEX 01 00:02:65
  TRACK 06 AUDIO
    TITLE "0:"
    INDEX 01 00:04:68
  TRACK 07 AUDIO
    TITLE "8:cjc113_4815"
    INDEX 01 00:05:26
  TRACK 08 AUDIO
    TITLE "0:"
    INDEX 01 00:06:47
  TRACK 09 AUDIO
    TITLE "9:cjc113_4816"
    INDEX 01 00:06:55
  TRACK 10 AUDIO
    TITLE "0:"
    INDEX 01 00:07:62
  TRACK 11 AUDIO
    TITLE "10:cjc113_4817"
    INDEX 01 00:07:70
  TRACK 12 AUDIO
    TITLE "0:"
    INDEX 01 00:10:51
  TRACK 13 AUDIO
    TITLE "8:cjc113_4818"
    INDEX 01 00:11:05
  TRACK 14 AUDIO
    TITLE "0:"
    INDEX 01 00:12:12
  TRACK 15 AUDIO
    TITLE "9:cjc113_4819"
    INDEX 01 00:12:20
  TRACK 16 AUDIO
    TITLE "0:"
    INDEX 01 00:13:59
  TRACK 17 AUDIO
    TITLE "10:cjc113_4820"
    INDEX 01 00:13:65
  TRACK 18 AUDIO
    TITLE "0:"
    INDEX 01 00:16:51
  TRACK 19 AUDIO
    TITLE "8:cjc113_4821"
    INDEX 01 00:17:08
  TRACK 20 AUDIO
    TITLE "0:"
    INDEX 01 00:18:23
  TRACK 21 AUDIO
    TITLE "9:cjc113_4822"
    INDEX 01 00:18:31
  TRACK 22 AUDIO
    TITLE "0:"
    INDEX 01 00:19:52
  TRACK 23 AUDIO
    TITLE "10:cjc113_4823"
    INDEX 01 00:19:62
  TRACK 24 AUDIO
    TITLE "0:"
    INDEX 01 00:22:25
  TRACK 25 AUDIO
    TITLE "8:cjc113_4824"
    INDEX 01 00:22:58
  TRACK 26 AUDIO
    TITLE "0:"
    INDEX 01 00:24:04
  TRACK 27 AUDIO
    TITLE "9:cjc113_4825"
    INDEX 01 00:24:14
  TRACK 28 AUDIO
    TITLE "0:"
    INDEX 01 00:25:31
  TRACK 29 AUDIO
    TITLE "10:cjc113_4826"
    INDEX 01 00:25:37
  TRACK 30 AUDIO
    TITLE "0:"
    INDEX 01 00:28:13
  TRACK 31 AUDIO
    TITLE "8:cjc113_4827"
    INDEX 01 00:28:45
  TRACK 32 AUDIO
    TITLE "0:"
    INDEX 01 00:29:60
  TRACK 33 AUDIO
    TITLE "9:cjc113_4828"
    INDEX 01 00:29:72
  TRACK 34 AUDIO
    TITLE "0:"
    INDEX 01 00:31:37
  TRACK 35 AUDIO
    TITLE "10:cjc113_4829"
    INDEX 01 00:31:45
  TRACK 36 AUDIO
    TITLE "0:"
    INDEX 01 00:35:43
  TRACK 37 AUDIO
    TITLE "8:cjc113_4830"
    INDEX 01 00:36:01
  TRACK 38 AUDIO
    TITLE "0:"
    INDEX 01 00:37:18
  TRACK 39 AUDIO
    TITLE "9:cjc113_4831"
    INDEX 01 00:37:26
  TRACK 40 AUDIO
    TITLE "0:"
    INDEX 01 00:38:49
  TRACK 41 AUDIO
    TITLE "10:cjc113_4832"
    INDEX 01 00:38:59
  TRACK 42 AUDIO
    TITLE "0:"
    INDEX 01 00:42:18
  TRACK 43 AUDIO
    TITLE "8:cjc113_4833"
    INDEX 01 00:42:51
  TRACK 44 AUDIO
    TITLE "0:"
    INDEX 01 00:43:60
  TRACK 45 AUDIO
    TITLE "9:cjc113_4834"
    INDEX 01 00:43:68
  TRACK 46 AUDIO
    TITLE "0:"
    INDEX 01 00:45:22
  TRACK 47 AUDIO
    TITLE "10:cjc113_4835"
    INDEX 01 00:45:30
  TRACK 48 AUDIO
    TITLE "0:"
    INDEX 01 00:49:29
  TRACK 49 AUDIO
    TITLE "8:cjc113_4836"
    INDEX 01 00:49:61
  TRACK 50 AUDIO
    TITLE "0:"
    INDEX 01 00:51:03
  TRACK 51 AUDIO
    TITLE "9:cjc113_4837"
    INDEX 01 00:51:11
  TRACK 52 AUDIO
    TITLE "0:"
    INDEX 01 00:52:49
  TRACK 53 AUDIO
    TITLE "10:cjc113_4838"
    INDEX 01 00:52:61
  TRACK 54 AUDIO
    TITLE "0:"
    INDEX 01 00:56:24
  TRACK 55 AUDIO
    TITLE "8:cjc113_4839"
    INDEX 01 00:56:55
  TRACK 56 AUDIO
    TITLE "0:"
    INDEX 01 00:58:07
  TRACK 57 AUDIO
    TITLE "9:cjc113_4840"
    INDEX 01 00:58:13
  TRACK 58 AUDIO
    TITLE "0:"
    INDEX 01 00:59:36
  TRACK 59 AUDIO
    TITLE "10:cjc113_4841"
    INDEX 01 00:59:59
  TRACK 60 AUDIO
    TITLE "0:"
    INDEX 01 01:04:11
  TRACK 61 AUDIO
    TITLE "8:cjc113_4842"
    INDEX 01 01:04:43
  TRACK 62 AUDIO
    TITLE "0:"
    INDEX 01 01:05:60
  TRACK 63 AUDIO
    TITLE "9:cjc113_4843"
    INDEX 01 01:05:71
  TRACK 64 AUDIO
    TITLE "0:"
    INDEX 01 01:07:23
  TRACK 65 AUDIO
    TITLE "10:cjc113_4844"
    INDEX 01 01:07:25
  TRACK 66 AUDIO
    TITLE "0:"
    INDEX 01 01:11:41
  TRACK 67 AUDIO
    TITLE "8:cjc113_4845"
    INDEX 01 01:11:72
  TRACK 68 AUDIO
    TITLE "0:"
    INDEX 01 01:13:10
  TRACK 69 AUDIO
    TITLE "9:cjc113_4846"
    INDEX 01 01:13:18
  TRACK 70 AUDIO
    TITLE "0:"
    INDEX 01 01:14:35
  TRACK 71 AUDIO
    TITLE "10:cjc113_4847"
    INDEX 01 01:14:43
  TRACK 72 AUDIO
    TITLE "0:"
    INDEX 01 01:18:09
  TRACK 73 AUDIO
    TITLE "8:cjc113_4848"
    INDEX 01 01:18:39
  TRACK 74 AUDIO
    TITLE "0:"
    INDEX 01 01:19:58
  TRACK 75 AUDIO
    TITLE "9:cjc113_4849"
    INDEX 01 01:19:64
  TRACK 76 AUDIO
    TITLE "0:"
    INDEX 01 01:21:25
  TRACK 77 AUDIO
    TITLE "10:cjc113_4850"
    INDEX 01 01:21:29
  TRACK 78 AUDIO
    TITLE "0:"
    INDEX 01 01:24:02
  TRACK 79 AUDIO
    TITLE "8:cjc113_4851"
    INDEX 01 01:24:32
  TRACK 80 AUDIO
    TITLE "0:"
    INDEX 01 01:25:45
  TRACK 81 AUDIO
    TITLE "9:cjc113_4852"
    INDEX 01 01:25:53
  TRACK 82 AUDIO
    TITLE "0:"
    INDEX 01 01:27:16
  TRACK 83 AUDIO
    TITLE "10:cjc113_4853"
    INDEX 01 01:27:22
  TRACK 84 AUDIO
    TITLE "0:"
    INDEX 01 01:29:64
